<?xml version="1.0" encoding="UTF-8" standalone="no"?>
<!-- Created with Inkscape (http://www.inkscape.org/) -->

<svg
   width="210mm"
   height="297mm"
   viewBox="0 0 210 297"
   version="1.1"
   id="svg5"
   inkscape:version="1.1.2 (b8e25be833, 2022-02-05)"
   sodipodi:docname="Design app.svg"
   xmlns:inkscape="http://www.inkscape.org/namespaces/inkscape"
   xmlns:sodipodi="http://sodipodi.sourceforge.net/DTD/sodipodi-0.dtd"
   xmlns="http://www.w3.org/2000/svg"
   xmlns:svg="http://www.w3.org/2000/svg">
  <sodipodi:namedview
     id="namedview7"
     pagecolor="#ffffff"
     bordercolor="#666666"
     borderopacity="1.0"
     inkscape:pageshadow="2"
     inkscape:pageopacity="0.0"
     inkscape:pagecheckerboard="0"
     inkscape:document-units="mm"
     showgrid="false"
     inkscape:zoom="0.733172"
     inkscape:cx="297.33814"
     inkscape:cy="606.95171"
     inkscape:window-width="1920"
     inkscape:window-height="1009"
     inkscape:window-x="-8"
     inkscape:window-y="-8"
     inkscape:window-maximized="1"
     inkscape:current-layer="layer1" />
  <defs
     id="defs2" />
  <g
     inkscape:label="Ebene 1"
     inkscape:groupmode="layer"
     id="layer1">
    <rect
       style="fill:#000000;stroke-width:0.264999;opacity:1;fill-opacity:1"
       id="rect55"
       width="146.1543"
       height="256.22116"
       x="29.952614"
       y="30.67436" />
    <rect
       style="opacity:1;fill:#ffffff;fill-opacity:1;stroke-width:0.264999"
       id="rect1708"
       width="129.62994"
       height="213.32802"
       x="39.297264"
       y="39.297264" />
    <path
       style="fill:none;stroke:#000000;stroke-width:0.264583px;stroke-linecap:butt;stroke-linejoin:miter;stroke-opacity:1"
       d="m 36.745494,228.12828 c 0.680474,0.17012 1.347052,0.41116 2.041417,0.51036 5.954043,0.85057 13.459383,-0.11475 19.393455,-0.51036 4.583015,-0.30553 9.186376,0 13.779561,0 14.630151,0 29.260303,0 43.890453,0 8.55507,0 17.48186,0.77693 26.02806,0 9.14858,-0.83169 18.3631,-0.51035 27.55912,-0.51035"
       id="path1936" />
    <path
       style="fill:none;stroke:#000000;stroke-width:0.264583px;stroke-linecap:butt;stroke-linejoin:miter;stroke-opacity:1"
       d="m 78.594531,227.10757 1.020707,31.1316"
       id="path1940" />
    <path
       style="fill:none;stroke:#000000;stroke-width:0.264583px;stroke-linecap:butt;stroke-linejoin:miter;stroke-opacity:1"
       d="m 134.22313,253.64599 0.51035,13.26919"
       id="path1942" />
    <path
       style="fill:none;stroke:#000000;stroke-width:0.264583px;stroke-linecap:butt;stroke-linejoin:miter;stroke-opacity:1"
       d="m 121.46427,261.81165 13.26921,5.10353"
       id="path1944" />
    <path
       style="fill:none;stroke:#000000;stroke-width:0.264583px;stroke-linecap:butt;stroke-linejoin:miter;stroke-opacity:1"
       d="M 134.22313,253.64599 V 228.12828"
       id="path1946" />
    <path
       style="opacity:1;fill:#000000;fill-opacity:1;stroke-width:0.264999"
       id="path1983"
       d="m 47.99917,234.69993 c -0.120549,1.30514 -0.198887,2.61297 -0.252139,3.9224 -0.04846,1.86469 0.276521,3.71218 0.46691,5.56198 0.260508,1.25555 -0.06699,2.65745 0.362344,3.88442 0.06703,0.19156 0.190116,0.35862 0.285173,0.53792 0.87871,1.09952 1.750785,0.87586 2.958785,0.5046 2.1023,-0.86093 4.162632,-1.82375 6.220039,-2.78645 1.817878,-0.85916 3.644562,-1.70806 5.514031,-2.45011 1.554554,-0.67707 4.842788,-1.09675 4.76931,-2.91766 -0.01177,-0.2919 -0.155958,-0.4589 -0.299701,-0.69504 -0.824124,-0.93019 -1.974332,-1.40472 -3.112881,-1.82858 -1.332818,-0.34689 -2.599,-0.82055 -3.811286,-1.47093 -1.319176,-0.85339 -2.705658,-1.59157 -4.079036,-2.35183 -1.568456,-0.78782 -3.158086,-1.54744 -4.770046,-2.24497 0,0 -3.21536,2.14662 -3.21536,2.14662 v 0 c 1.616229,0.65449 3.191227,1.42255 4.743072,2.21282 1.375402,0.75703 2.780268,1.46658 4.079057,2.35363 1.218134,0.67876 2.476863,1.21703 3.845949,1.51945 1.063032,0.37163 2.131978,0.8027 2.924313,1.63422 0.05733,0.0953 0.191132,0.23575 0.128002,0.37339 -0.03011,0.0657 -0.211074,0.19304 -0.147518,0.15872 5.839026,-3.15297 3.326381,-1.71808 1.992347,-1.2814 -1.903069,0.73283 -3.747326,1.61594 -5.592943,2.48048 -2.029785,0.95223 -4.071987,1.87678 -6.127355,2.77253 -0.948865,0.33258 -1.853949,0.80588 -2.639571,-0.0674 -0.07918,-0.14385 -0.183607,-0.27645 -0.237556,-0.43153 -0.399621,-1.14882 -0.12596,-2.64285 -0.38435,-3.83164 -0.18651,-1.83946 -0.53269,-3.67676 -0.404881,-5.53285 0.04788,-1.30645 0.117539,-2.61457 0.302072,-3.90994 0,0 -3.516781,1.73714 -3.516781,1.73714 z" />
    <path
       style="opacity:1;fill:#000000;fill-opacity:1;stroke-width:0.264999"
       id="path1985"
       d="m 155.74139,234.13583 c -1.42229,0.007 -2.83892,-0.006 -4.25404,0.14963 -2.44118,0.37051 -4.33947,1.72013 -6.4175,3.10369 -0.2872,0.19122 -0.90664,1.13778 -1.08938,1.40032 -0.62793,1.22175 -1.27015,2.69365 -0.87782,4.09789 0.0636,0.22771 0.1819,0.43647 0.27285,0.6547 0.28293,0.41131 0.47747,0.75994 0.87017,1.07953 0.87605,0.71296 2.24182,1.2467 3.28387,1.68528 1.58728,0.5968 2.99758,0.92543 4.69465,0.75629 2.62325,-0.62936 5.29119,-2.01795 6.74016,-4.34323 0.56228,-1.44186 0.80601,-3.01862 0.77665,-4.56361 -0.15062,-1.52972 -0.52424,-2.201 -1.80424,-3.05679 -1.17584,-0.68577 -2.52232,-0.83326 -3.85297,-0.9262 -0.57783,-7.9e-4 -1.14535,-0.0612 -1.71279,-0.16178 0,0 -3.19751,2.22788 -3.19751,2.22788 v 0 c 0.57921,0.12862 1.15743,0.22425 1.75486,0.1976 1.28,0.0646 2.5864,0.15436 3.74379,0.76053 1.20298,0.73954 1.48879,1.3252 1.61215,2.72415 -0.001,1.48403 -0.19362,3.01448 -0.87226,4.35115 -0.36387,0.50266 -0.40652,0.61717 -0.87304,1.03676 -0.16744,0.1506 -0.73228,0.51908 -0.53148,0.41711 0.93042,-0.47251 1.82554,-1.01174 2.72938,-1.53328 0.21405,-0.12352 -0.4294,0.2485 -0.65943,0.33885 -0.24457,0.0961 -0.50508,0.14516 -0.75763,0.21774 -0.25247,0.0434 -0.50208,0.10959 -0.75743,0.13009 -1.30634,0.1049 -2.60772,-0.33881 -3.83561,-0.71059 -1.08843,-0.43793 -0.61992,-0.22609 -1.68115,-0.74756 -0.90466,-0.44453 -1.77499,-0.85463 -2.2835,-1.77474 -0.0762,-0.18995 -0.17702,-0.37181 -0.22862,-0.56987 -0.3453,-1.32542 0.34264,-2.70519 0.98116,-3.81552 1.29778,-1.68054 2.36422,-1.98666 -1.48631,0.16593 -0.24128,0.13488 0.47978,-0.27709 0.73342,-0.38698 0.65636,-0.2844 0.94028,-0.30746 1.63533,-0.45363 1.38559,-0.17824 2.77044,-0.18711 4.16602,-0.14221 0,0 3.17825,-2.30913 3.17825,-2.30913 z" />
    <path
       style="opacity:1;fill:#000000;fill-opacity:1;stroke-width:0.264999"
       id="path1987"
       d="m 151.7884,235.99041 c 2.39493,-1.48197 3.13719,-1.44947 4.39497,-2.9964 0.68313,-0.84019 1.25535,-1.72266 2.02229,-2.49461 0,0 -3.582,1.49565 -3.582,1.49565 v 0 c -0.7114,0.79214 -1.286,1.69427 -1.99989,2.48158 -1.06305,1.17238 -2.03897,1.37854 2.21403,-0.95333 0,0 -3.0494,2.46711 -3.0494,2.46711 z" />
    <path
       style="opacity:1;fill:#000000;fill-opacity:1;stroke-width:0.264999"
       id="path1989"
       d="m 155.75803,238.51653 c 2.36259,-1.15993 4.49794,-2.67054 6.69989,-4.08774 0,0 -3.5555,1.38494 -3.5555,1.38494 v 0 c -1.23143,0.79584 -5.93572,3.77118 -0.095,0.2357 0,0 -3.04939,2.4671 -3.04939,2.4671 z" />
    <path
       style="opacity:1;fill:#000000;fill-opacity:1;stroke-width:0.264999"
       id="path1991"
       d="m 155.83007,244.37914 c 1.29427,-0.0286 2.58889,-0.0254 3.88337,-0.0223 0,0 3.10282,-2.25433 3.10282,-2.25433 v 0 c -1.27398,0.003 -2.54813,0.007 -3.82188,-0.0223 0,0 -3.16431,2.299 -3.16431,2.299 z" />
    <path
       style="opacity:1;fill:#000000;fill-opacity:1;stroke-width:0.264999"
       id="path1993"
       d="m 152.76044,248.77872 c 0.15691,1.10149 0.19727,2.21526 0.24684,3.32542 0,0 3.41735,-1.76167 3.41735,-1.76167 v 0 c -0.0568,-1.13245 -0.1034,-2.26595 -0.18987,-3.39657 0,0 -3.47432,1.83282 -3.47432,1.83282 z" />
    <path
       style="opacity:1;fill:#000000;fill-opacity:1;stroke-width:0.264999"
       id="path1995"
       d="m 145.04889,246.16791 c -0.72722,0.80208 -1.43349,1.62102 -2.16394,2.4203 0,0 3.51883,-1.47721 3.51883,-1.47721 v 0 c 0.74006,-0.81848 1.46079,-1.65592 2.2442,-2.43387 0,0 -3.59909,1.49078 -3.59909,1.49078 z" />
    <path
       style="opacity:1;fill:#000000;fill-opacity:1;stroke-width:0.264999"
       id="path2003"
       d="m 144.57032,240.61119 c -0.57064,-0.0652 -1.14249,-0.11846 -1.71439,-0.17106 0,0 -3.16603,2.25728 -3.16603,2.25728 v 0 c 0.5577,0.0487 1.11593,0.0956 1.67006,0.17735 0,0 3.21036,-2.26357 3.21036,-2.26357 z" />
    <path
       style="opacity:1;fill:#000000;fill-opacity:1;stroke-width:0.264999"
       id="path2005"
       d="m 147.18815,235.1415 c -0.46526,-0.3184 -0.95529,-0.59698 -1.43252,-0.89686 0,0 -3.27076,2.10458 -3.27076,2.10458 v 0 c 0.46799,0.30003 0.95996,0.56332 1.39585,0.90999 0,0 3.30743,-2.11771 3.30743,-2.11771 z" />
    <path
       style="opacity:1;fill:#000000;fill-opacity:1;stroke-width:0.264999"
       id="path2007"
       d="m 151.87411,233.7356 c -0.024,-1.05125 -0.0287,-2.1004 -0.0859,-3.15056 0,0 -3.41496,1.7595 -3.41496,1.7595 v 0 c 0.038,1.05819 0.042,2.11615 5.3e-4,3.17457 0,0 3.50034,-1.78351 3.50034,-1.78351 z" />
    <path
       style="opacity:1;fill:#000000;fill-opacity:1;stroke-width:0.264999"
       id="path2009"
       d="m 92.440722,237.24794 c -0.02119,1.39123 0.05962,2.76926 0.247999,4.14714 0.358476,1.77052 0.604848,3.55584 0.750385,5.35565 0.08276,1.10424 0.09373,2.21188 0.103669,3.31862 0.02867,0.75969 -0.185814,1.74255 0.460441,2.32465 0.120092,0.10817 0.271886,0.17484 0.407829,0.26226 0.202991,0.0471 0.40209,0.11632 0.608978,0.14122 0.808551,0.0973 1.683975,-0.073 2.486062,-0.1431 1.139044,-0.0995 1.027938,-0.086 2.231535,-0.16861 2.25569,-0.13558 4.51566,-0.16082 6.77462,-0.18704 2.35555,-0.0291 4.71128,-0.0129 7.0669,-0.005 1.36982,0.005 2.73961,0.0181 4.10944,0.0204 1.1365,0.002 2.273,-0.003 3.4095,-0.002 1.90805,-0.0658 2.53256,-0.82414 4.64458,-2.20819 0.2782,-0.18231 0.36177,-1.63891 0.39447,-1.93132 0.13407,-1.47125 0.11648,-2.94975 0.11315,-4.42529 0.003,-1.26831 -0.0165,-2.53642 -0.0161,-3.80471 0.0383,-1.6066 0.12177,-1.91349 -1.27311,-2.8841 -1.27534,-0.75133 -2.77759,-0.69483 -4.20923,-0.72597 -2.34622,-0.0369 -4.69132,-0.0349 -7.03484,0.086 -2.06258,0.13498 -4.09852,0.49615 -6.14919,0.73739 -1.35288,0.15854 -2.71398,0.21154 -4.07479,0.23693 -1.34859,0.0759 -2.68869,-0.0595 -4.02783,-0.19714 -0.933691,-0.11008 -1.871959,-0.14501 -2.811129,-0.15652 -0.723979,-0.006 -0.365027,-0.004 -1.076859,-0.008 0,0 -3.154701,2.29 -3.154701,2.29 v 0 c 0.711922,0.001 0.353512,-2.2e-4 1.075226,0.005 0.932921,0.0142 1.866332,0.0366 2.795585,0.12763 1.350082,0.12475 2.699541,0.28747 4.058328,0.22919 1.37899,-0.0168 2.758,-0.0689 4.12903,-0.2276 2.05661,-0.24573 4.09661,-0.60755 6.16198,-0.77717 2.33359,-0.13381 4.66729,-0.15474 7.00448,-0.10127 1.35477,0.0376 2.78855,-0.0304 4.03427,0.58374 1.29551,0.80753 1.09461,1.10703 1.09393,2.5459 0.007,1.26731 -5.3e-4,2.53464 0.0228,3.80184 0.008,1.45829 0.0213,2.92138 -0.1281,4.37384 -0.0668,0.4311 -0.1069,0.95781 -0.31465,1.36039 -0.0595,0.11525 -0.37891,0.3449 -0.26302,0.28669 5.67863,-2.85238 3.57559,-1.64238 2.15259,-1.50315 -1.1344,0.001 -2.2688,-0.004 -3.4032,-0.002 -1.38632,0.001 -2.77263,0.0131 -4.15895,0.0157 -2.36016,0.005 -4.7203,0.0167 -7.08046,0.0108 -2.26636,0.0109 -4.53267,0.0619 -6.79628,0.17789 -1.06397,0.0571 -2.12361,0.13465 -3.185381,0.22311 -0.09703,0.008 -1.229032,0.11058 -1.414523,0.1102 -0.173236,-2.7e-4 -0.345236,-0.0292 -0.517856,-0.0438 -0.106365,-0.045 -0.224485,-0.0688 -0.319092,-0.13512 -0.609079,-0.42664 -0.28297,-1.48506 -0.357603,-2.08228 -0.0013,-1.11333 -0.02833,-2.22635 -0.144643,-3.3347 -0.180006,-1.79816 -0.436038,-3.58389 -0.765834,-5.36074 -0.145116,-1.3764 -0.247949,-2.752 -0.165179,-4.13723 0,0 -3.495225,1.7809 -3.495225,1.7809 z" />
    <path
       style="opacity:1;fill:#000000;fill-opacity:1;stroke-width:0.264999"
       id="path2011"
       d="m 103.20739,236.24174 c 0.11478,-1.11363 0.13967,-2.23137 0.42014,-3.31867 0.33686,-1.08419 0.81187,-2.10289 1.6723,-2.86005 1.08947,-0.83124 3.35062,-2.18211 -2.05422,1.11196 -0.12434,0.0758 0.26313,-0.1254 0.39884,-0.1782 0.34317,-0.13351 0.45055,-0.14187 0.81373,-0.22154 0.96549,-0.16899 1.93556,-0.13268 2.89479,0.0461 1.10789,0.26151 2.11489,0.78014 3.06668,1.39006 0.93877,0.59559 1.68927,1.3478 2.24436,2.30466 0.43169,0.84662 0.77772,1.7188 0.95968,2.652 0.0705,0.56285 0.0416,0.27925 0.0862,0.85083 0,0 3.46858,-1.80489 3.46858,-1.80489 v 0 c -0.0557,-0.59718 -0.0208,-0.29915 -0.1048,-0.89408 -0.21368,-0.96543 -0.58488,-1.8714 -1.03533,-2.75108 -0.57868,-1.01649 -1.36164,-1.81688 -2.34839,-2.45574 -0.97426,-0.64809 -1.9991,-1.2042 -3.13346,-1.51845 -0.97832,-0.23154 -1.97492,-0.29936 -2.97535,-0.17201 -2.23393,0.2955 -4.18696,1.69381 -5.88132,3.12977 -0.78605,0.87404 -1.27576,1.92499 -1.58331,3.05763 -0.242393,1.11057 -0.253884,2.24647 -0.425913,3.36881 0,0 3.516783,-1.73715 3.516783,-1.73715 z" />
    <path
       style="fill:none;stroke:#000000;stroke-width:0.264583px;stroke-linecap:butt;stroke-linejoin:miter;stroke-opacity:1"
       d="m 147.0565,40.59842 c -0.75749,0.282625 -1.61666,0.887638 -1.98481,1.623936 -0.22221,0.44441 0.52376,-0.162885 -0.18044,0.541314 -0.0425,0.04253 -0.13791,-0.04253 -0.18044,0 -0.24693,0.246935 -0.30191,1.023665 -0.54131,1.263062 -0.25112,0.251119 -1.08262,0.792914 -1.08262,1.082622 l 3.42831,1.984814 c 0.28558,-0.709751 1.02254,-1.03459 1.4435,-1.623937 0.27267,-0.381743 0.26879,-1.351413 0.54131,-1.623937 0.0951,-0.0951 0.26578,-0.08534 0.36087,-0.180437 0.13894,-0.138935 0.24054,-0.62149 0.54132,-0.72175 0.11412,-0.03804 0.25328,0.0538 0.36087,0 0.10759,-0.0538 -0.0667,-0.260786 0,-0.360875 0.40341,-0.605106 0.36088,-0.119444 0.36088,-0.541312 -1.37408,-0.395629 -1.88771,-1.050256 -3.06744,-1.4435 z"
       id="path2050" />
    <text
       xml:space="preserve"
       style="font-style:normal;font-weight:normal;font-size:10.5833px;line-height:1.25;font-family:sans-serif;fill:#000000;fill-opacity:1;stroke:none;stroke-width:0.264583"
       x="159.68712"
       y="45.650669"
       id="text6432"><tspan
         sodipodi:role="line"
         id="tspan6430"
         style="stroke-width:0.264583"></tspan></text>
    <text
       xml:space="preserve"
       style="font-style:normal;font-weight:normal;font-size:10.5833px;line-height:1.25;font-family:sans-serif;fill:#000000;fill-opacity:1;stroke:none;stroke-width:0.264583"
       x="152.28918"
       y="49.620293"
       id="text25784"><tspan
         sodipodi:role="line"
         id="tspan25782"
         style="stroke-width:0.264583"></tspan></text>
    <text
       xml:space="preserve"
       style="font-style:normal;font-weight:normal;font-size:4.93889px;line-height:1.25;font-family:sans-serif;fill:#000000;fill-opacity:1;stroke:none;stroke-width:0.264583"
       x="152.83049"
       y="46.011543"
       id="text36744"><tspan
         sodipodi:role="line"
         id="tspan36742"
         style="font-size:4.93889px;stroke-width:0.264583"
         x="152.83049"
         y="46.011543">Gold</tspan></text>
    <path
       style="opacity:1;fill:#ff0000;fill-opacity:1;stroke-width:1.00157"
       id="path48510"
       sodipodi:type="arc"
       sodipodi:cx="42.944107"
       sodipodi:cy="43.48542"
       sodipodi:rx="1.0826246"
       sodipodi:ry="1.6239368"
       sodipodi:start="4.6393819"
       sodipodi:end="4.6290146"
       sodipodi:open="true"
       sodipodi:arc-type="arc"
       d="m 42.865138,41.865809 a 1.0826246,1.6239368 0 0 1 1.158501,1.49696 1.0826246,1.6239368 0 0 1 -0.994967,1.741626 1.0826246,1.6239368 0 0 1 -1.163659,-1.487932 1.0826246,1.6239368 0 0 1 0.988935,-1.749339" />
    <path
       style="opacity:1;fill:#ff0000;fill-opacity:1;stroke-width:1.00157"
       id="path48512"
       sodipodi:type="arc"
       sodipodi:cx="44.077465"
       sodipodi:cy="43.668018"
       sodipodi:rx="1.2123277"
       sodipodi:ry="1.8022108"
       sodipodi:start="4.6393819"
       sodipodi:end="4.6290146"
       sodipodi:open="true"
       sodipodi:arc-type="arc"
       d="m 43.989035,41.870608 a 1.2123277,1.8022108 0 0 1 1.297295,1.661295 1.2123277,1.8022108 0 0 1 -1.114169,1.93282 1.2123277,1.8022108 0 0 1 -1.30307,-1.651276 1.2123277,1.8022108 0 0 1 1.107414,-1.941379" />
    <text
       xml:space="preserve"
       style="font-style:normal;font-weight:normal;font-size:4.93889px;line-height:1.25;font-family:sans-serif;fill:#000000;fill-opacity:1;stroke:none;stroke-width:0.264583"
       x="48.738815"
       y="45.166336"
       id="text57184"><tspan
         sodipodi:role="line"
         id="tspan57182"
         style="font-size:4.93889px;stroke-width:0.264583"
         x="48.738815"
         y="45.166336">Leben</tspan></text>
    <path
       style="opacity:1;fill:#ff0000;fill-opacity:1;stroke-width:1.00157"
       id="path61006"
       sodipodi:type="arc"
       sodipodi:cx="73.363396"
       sodipodi:cy="43.635277"
       sodipodi:rx="1.6586509"
       sodipodi:ry="2.2965934"
       sodipodi:start="4.6393819"
       sodipodi:end="4.6290146"
       sodipodi:open="true"
       sodipodi:arc-type="arc"
       d="m 73.24241,41.344801 a 1.6586509,2.2965934 0 0 1 1.774899,2.117021 1.6586509,2.2965934 0 0 1 -1.524354,2.463031 1.6586509,2.2965934 0 0 1 -1.782801,-2.104253 1.6586509,2.2965934 0 0 1 1.515113,-2.473939" />
    <path
       style="opacity:1;fill:#ff0000;fill-opacity:1;stroke-width:1.00157"
       id="path61008"
       sodipodi:type="arc"
       sodipodi:cx="74.897758"
       sodipodi:cy="43.51075"
       sodipodi:rx="1.655353"
       sodipodi:ry="2.1659458"
       sodipodi:start="4.6393819"
       sodipodi:end="4.6290146"
       sodipodi:open="true"
       sodipodi:arc-type="arc"
       d="m 74.777013,41.350574 a 1.655353,2.1659458 0 0 1 1.77137,1.996589 1.655353,2.1659458 0 0 1 -1.521323,2.322915 1.655353,2.1659458 0 0 1 -1.779256,-1.984548 1.655353,2.1659458 0 0 1 1.5121,-2.333202" />
    <text
       xml:space="preserve"
       style="font-style:normal;font-weight:normal;font-size:4.93889px;line-height:1.25;font-family:sans-serif;fill:#000000;fill-opacity:1;stroke:none;stroke-width:0.264583"
       x="78.849709"
       y="45.676693"
       id="text62764"><tspan
         sodipodi:role="line"
         id="tspan62762"
         style="font-size:4.93889px;stroke-width:0.264583"
         x="78.849709"
         y="45.676693">Schaden</tspan></text>
    <path
       style="opacity:1;fill:#ffffff;fill-opacity:1;stroke-width:0.341521"
       d="m 547.77906,173.70102 c -2.99411,-1.74831 -5.59728,-3.25103 -5.78482,-3.33938 -0.18754,-0.0883 0.60744,-1.02105 1.76663,-2.07267 1.65094,-1.49773 2.23361,-2.2974 2.68905,-3.69055 0.37619,-1.15069 0.98634,-2.11829 1.72846,-2.74104 0.79654,-0.66842 1.14702,-1.2524 1.14702,-1.9112 0,-1.13136 2.79782,-3.95738 5.06093,-5.11193 l 1.43056,-0.72982 1.61328,0.81126 c 0.8873,0.44618 3.22443,1.64344 5.19361,2.66056 l 3.58033,1.8493 -0.51147,1.09308 c -0.28132,0.60119 -0.76887,1.0964 -1.08345,1.10046 -0.61745,0.008 -1.82869,1.36332 -2.16483,2.42238 -0.11414,0.35962 -0.40356,0.65385 -0.64317,0.65385 -0.66333,0 -1.56192,1.15022 -1.89981,2.43181 -0.16654,0.63169 -0.48086,1.83362 -0.69848,2.67096 -0.31377,1.20728 -0.97367,2.09783 -3.18784,4.30205 l -2.79216,2.77962 z"
       id="path72830"
       transform="scale(0.26458333)" />
    <rect
       style="opacity:1;fill:#ffffff;fill-opacity:1;stroke-width:0.264999"
       id="rect72950"
       width="65.070145"
       height="27.814299"
       x="71.194397"
       y="224.04544" />
    <rect
       style="opacity:1;fill:#ffffff;fill-opacity:1;stroke-width:0.264999"
       id="rect72952"
       width="51.673347"
       height="2.2965958"
       x="77.318649"
       y="250.32869" />
    <rect
       style="opacity:1;fill:#ffffff;fill-opacity:1;stroke-width:0.264999"
       id="rect72954"
       width="16.969271"
       height="9.5691357"
       x="125.29193"
       y="243.05614" />
    <path
       style="opacity:1;fill:#ffffff;fill-opacity:1;stroke-width:0.264999"
       id="path73022"
       d="m 71.428818,230.11266 c 0.832662,0 1.665325,0 2.497987,0 0.723193,0 1.446387,0 2.169581,0 0.679246,0.0384 1.358532,0.0753 2.03831,0.10284 0.880938,0.0285 1.762564,0.0242 2.643849,0.0253 1.361262,0.0414 2.722377,0.0819 4.084135,0.10406 1.190905,0.0183 2.38194,0.0221 3.572959,0.0236 0.824005,5.3e-4 1.648013,2.7e-4 2.472018,1.4e-4 2.80633,-8e-4 2.805293,-3.96949 -0.0011,-3.96875 v 0 c -0.822021,2.1e-4 -1.644042,5.3e-4 -2.466062,-1.4e-4 -1.171131,-0.001 -2.342277,-0.005 -3.513297,-0.023 -1.381685,-0.0224 -2.762623,-0.0658 -4.143888,-0.10459 -0.829402,-0.001 -1.65912,0.003 -2.488237,-0.022 -0.733234,-0.0296 -1.465585,-0.0756 -2.198751,-0.10609 -0.723193,0 -1.446387,0 -2.16958,0 -0.832663,0 -1.665325,0 -2.497987,0 -2.80633,0 -2.80633,3.96875 0,3.96875 z" />
    <path
       style="opacity:1;fill:#000000;fill-opacity:1;stroke-width:0.264999"
       id="path73059"
       d="m 71.364757,228.43421 c 0.929982,-0.0419 1.860182,-0.0842 2.7911,-0.10942 1.5039,-0.034 3.008212,-0.0387 4.512427,-0.0405 1.669539,0.0448 3.33136,-0.13269 4.994986,-0.23835 2.356186,-0.12946 4.71695,-0.14035 7.075877,-0.17282 4.694975,-0.0263 9.390053,-0.0403 14.085083,-0.0391 3.87087,0.003 7.74174,0.0204 11.61237,0.0642 1.13374,0.0213 2.26766,0.011 3.40146,0.0212 1.50592,0.036 2.99605,0.26419 4.4698,0.56152 0.59008,0.14359 1.18862,0.23745 1.78777,0.33138 0.78896,0.10592 1.58765,0.10699 2.38229,0.11608 2.22409,0.016 4.44827,0.004 6.67239,0.009 0.65687,0.003 1.31374,0.003 1.97061,0.003 0.49019,-5.3e-4 0.98038,10e-4 1.47056,0.003 0.0565,1.8e-4 0.22596,5.3e-4 0.16947,5.3e-4 -1.23603,2.6e-4 -2.47206,2.6e-4 -3.70808,5.3e-4 -0.053,0 0.10604,2.6e-4 0.15906,-1.6e-4 1.34039,-0.0109 2.68078,-0.0226 4.02117,-0.034 0,0 -3.86692,-0.57414 -3.86692,-0.57414 v 0 c 7.85161,-0.007 1.67769,-0.001 -0.62615,-0.003 -0.47654,0.002 -0.95309,0.004 -1.42964,0.003 -0.639,5.3e-4 -1.27798,0.002 -1.91697,0.005 -1.53501,0.005 -0.4248,0.001 2.82586,0.002 0.1636,4e-5 -0.32722,5.3e-4 -0.49083,5.3e-4 -0.22352,-1e-5 -0.78408,-5.3e-4 -1.00731,-0.002 -0.16755,-7.9e-4 -0.3351,-0.002 -0.50264,-0.003 -0.76144,-0.008 -1.52449,-0.011 -2.28358,-0.0776 -0.63729,-0.091 -1.27652,-0.16842 -1.90788,-0.29827 -1.49668,-0.27648 -3.00083,-0.52718 -4.52226,-0.61726 -1.17475,-0.0433 -2.35011,-0.0217 -3.5254,-0.01 -4.1334,0.0398 -8.26696,0.0587 -12.40056,0.0606 -6.66446,1.2e-4 -13.328891,-0.0109 -19.993329,-0.0229 -2.504885,-0.0122 -5.012767,-0.0377 -7.514035,0.12527 -1.660286,0.10344 -3.319756,0.25385 -4.985361,0.21736 -1.549132,0.003 -3.098747,-0.008 -4.647504,0.0293 -0.978807,0.0291 -1.957504,0.0892 -2.936973,0.0755 0,0 3.863139,0.61186 3.863139,0.61186 z" />
    <path
       style="fill:none;stroke:#000000;stroke-width:0.264583px;stroke-linecap:butt;stroke-linejoin:miter;stroke-opacity:1"
       d="m 78.594531,227.10757 c 1.448266,2.53447 1.085342,1.02561 0.637942,4.08284 -0.142838,0.97606 -0.317145,1.95025 -0.382765,2.93453 -0.163147,2.44722 0,4.94378 0,7.40014 0,0.74966 0.09262,1.55561 0,2.29659 -0.08379,0.67035 -0.252018,1.26009 -0.382764,1.91383 -0.05671,0.28353 0.170116,0 0,0.51035 -0.04849,0.14548 -0.198229,0.24039 -0.255178,0.38277 -0.102428,0.25607 0.06735,0.62374 0,0.89312 -0.04253,0.12759 -0.08506,0.25517 -0.12759,0.38276 -0.04253,0.0425 -0.108569,0.0705 -0.127587,0.12759 -0.113062,0.33918 0.04189,1.86809 0.127587,2.2966 0.102688,0.51343 0.09311,0.0586 0.255178,0.38276 0.03798,0.076 0.07335,1.0016 0,1.1483 -0.05379,0.10759 -0.20138,0.14758 -0.255178,0.25518 -0.01802,0.036 0.02927,0.373 0,0.38276 -0.245419,0.0818 -0.510352,0.0851 -0.765527,0.1276"
       id="path73096" />
    <path
       style="fill:none;stroke:#000000;stroke-width:0.264583px;stroke-linecap:butt;stroke-linejoin:miter;stroke-opacity:1"
       d="m 134.22313,228.12828 c -0.46783,0.29771 -1.17592,0.38744 -1.40348,0.89312 -0.28061,0.62359 0.50899,2.16216 0.63795,2.80695 0.0667,0.33363 0,0.68047 0,1.02071 0,0.37658 0.29278,1.08116 0.38276,1.53106 0.14349,0.71745 0.22984,1.45533 0.38277,2.16901 0.13547,0.63222 0.40399,1.27567 0.51035,1.91382 0.20568,1.23405 -0.3746,-0.82065 0.12759,1.02071 0.18911,0.69341 0.53587,1.45447 0.63794,2.16901 0.0688,0.48186 0,1.37347 0,1.78623 0,1.23336 0,2.46672 0,3.70007 0,1.44601 0,2.89201 0,4.33801 0,0.0317 -0.009,1.23217 0.25518,1.02071 0.21265,-0.17012 0.34023,-0.4253 0.51035,-0.63795"
       id="path73098" />
    <path
       style="fill:none;stroke:#000000;stroke-width:0.264583px;stroke-linecap:butt;stroke-linejoin:miter;stroke-opacity:1"
       d="m 105.77089,253.90116 c -0.18838,0 -0.13402,-0.77839 -0.25518,-1.02071 -0.21628,-0.43244 -0.25518,-3.88027 -0.25518,-4.59318 0,-1.28933 0.15899,-2.68335 0,-3.95525 -0.12458,-0.99428 -0.33159,-2.68002 -0.12758,-3.70006 0.16978,-0.84891 0.16901,-1.44324 0.51035,-2.2966 0.11263,-0.28157 -0.0207,-1.08996 0,-1.27588 0.0446,-0.401 0.30367,-0.75266 0.38277,-1.1483 0.14168,-0.70839 0.12758,-0.95092 0.12758,-1.53106 0,-1.55343 -0.27342,-2.86609 -0.85382,-4.3171 -0.7984,-1.99601 -0.18772,-0.21098 -0.54965,-1.2968 -0.0555,-0.16635 -0.19319,-0.67298 -0.12759,-0.51035 0.24057,0.59662 0.45149,1.20476 0.67724,1.80715 0.0907,-0.88239 -0.61118,-3.48592 0,0"
       id="path73104" />
    <path
       style="fill:none;stroke:#000000;stroke-width:0.264583px;stroke-linecap:butt;stroke-linejoin:miter;stroke-opacity:1"
       d="m 104.36741,227.10757 c 0.0285,0.28123 -0.007,0.75217 0.12759,1.02071 0.2655,0.53099 -0.009,-0.1364 0.25518,0.12759 0.0523,0.0523 -0.0259,0.30973 0,0.38277 0.1699,0.47972 0.36643,0.94958 0.54965,1.42438"
       id="path73108" />
    <path
       style="opacity:1;fill:#000000;fill-opacity:1;stroke-width:0.264999"
       id="path73145"
       d="m 83.460816,245.02162 c 0.988701,-0.0174 1.977605,-0.0163 2.966414,-0.0132 1.00131,0.006 2.002639,0.002 3.003954,-3e-5 -5.935453,-0.1193 -3.141077,-0.0177 -1.828614,0.14222 0.546806,0.0666 1.092287,0.14439 1.638464,0.21593 0.648253,0.0832 1.298839,0.14107 1.952188,0.15537 3.447648,-0.0354 6.895589,-0.0312 10.343358,-0.0145 1.07992,0.007 0.56918,0.004 1.53224,0.01 0,0 -3.67932,-0.58249 -3.67932,-0.58249 v 0 c -0.875054,0.008 -0.410464,0.004 -1.393774,0.0119 -0.98002,0.006 -4.697252,0.0493 -0.09706,0.0115 0.440473,-0.004 -0.88098,-0.003 -1.321448,-0.007 -0.342416,-0.003 -0.684789,-0.0103 -1.027181,-0.0156 -0.185383,-0.003 -0.370764,-0.006 -0.556147,-0.009 -0.670819,-0.008 -1.341294,-0.0339 -2.008666,-0.10714 -2.428907,-0.26818 -4.77352,-0.70206 -7.262011,-0.39834 -1.001471,-0.002 -2.002954,-0.006 -3.004415,-3e-5 -1.044167,0.003 -2.08839,0.003 -3.132465,-0.0131 0,0 3.874486,0.61366 3.874486,0.61366 z" />
    <path
       style="opacity:1;fill:#000000;fill-opacity:1;stroke-width:0.264999"
       id="path73147"
       d="m 84.42654,244.15264 c 0.150662,-0.534 0.303321,-1.07304 0.497922,-1.59323 0.122357,-0.43556 0.347885,-0.82212 0.572606,-1.20958 0.207857,-0.35814 0.522055,-0.63722 0.835076,-0.90221 0.364513,-0.31701 0.75208,-0.60683 1.169191,-0.85077 0.180998,-0.0582 0.331525,-0.18151 0.499858,-0.26318 0.209111,-0.10145 0.448252,-0.15263 0.666809,-0.23025 0.565626,-0.11851 1.131808,-0.2367 1.699492,-0.34571 0.538205,-0.13979 1.09342,-0.20709 1.648101,-0.23164 -6.409598,0.0932 -4.084151,-0.16286 -2.749495,0.12197 0.351436,0.075 0.691817,0.18077 1.030994,0.29761 0.436534,0.17232 0.874953,0.33933 1.312045,0.51018 0.4264,0.14664 0.79229,0.40063 1.160248,0.65366 0.40961,0.29334 0.835824,0.56057 1.244862,0.855 0.41706,0.27045 0.788998,0.59457 1.14264,0.94189 0.282819,0.28442 0.496599,0.62707 0.701096,0.96977 0.296809,0.44528 0.52932,0.92149 0.727382,1.41733 0.179668,0.44046 0.350692,0.88293 0.430649,1.35311 0.02416,0.20571 0.01453,0.10455 0.02936,0.30345 0,0 3.910174,-0.034 3.910174,-0.034 v 0 c -0.0219,-0.22213 -0.008,-0.10891 -0.0411,-0.3396 -0.0958,-0.49808 -0.27293,-0.96504 -0.49278,-1.42205 -0.18417,-0.51232 -0.37115,-1.03182 -0.675799,-1.48719 -0.219056,-0.36906 -0.435176,-0.74475 -0.722463,-1.06615 -0.359527,-0.36223 -0.720294,-0.72731 -1.155499,-1.00048 -0.406919,-0.29959 -0.812702,-0.59766 -1.247683,-0.85508 -0.197733,-0.15166 -0.402857,-0.29128 -0.601696,-0.44134 -0.06023,-0.0455 -0.114562,-0.0994 -0.179213,-0.13832 -0.116213,-0.07 -0.259779,-0.0867 -0.368943,-0.17169 -0.44826,-0.18371 -0.903002,-0.3481 -1.357334,-0.51605 -2.061668,-0.8003 -3.330892,-0.63072 -5.91435,-0.52905 -0.558729,0.0531 -1.10993,0.15523 -1.656988,0.28041 -0.574622,0.12117 -1.158097,0.21446 -1.716854,0.39889 -0.417881,0.14812 -0.820399,0.3309 -1.188818,0.58024 -0.404178,0.28213 -0.799013,0.57618 -1.161841,0.91099 -0.333635,0.30543 -0.665234,0.6175 -0.86555,1.03099 -0.222708,0.40957 -0.422622,0.8296 -0.554445,1.27859 -0.173683,0.53008 -0.292129,1.08082 -0.544814,1.58286 0,0 3.917137,0.1406 3.917137,0.1406 z" />
    <path
       style="opacity:1;fill:#000000;fill-opacity:1;stroke-width:0.264999"
       id="path73149"
       d="m 92.041765,237.59059 c -0.0348,-0.43295 -0.02482,-0.86826 -0.02027,-1.30221 0.0093,-0.36611 0.0055,-0.73231 0.0067,-1.09847 0.0016,-0.30763 0.0094,-0.61522 0.0053,-0.92283 0.0056,-0.44483 0.157171,-0.86611 0.331229,-1.26967 0.185148,-0.34673 0.574895,-0.45281 0.911749,-0.59921 0.367562,-0.10311 0.746289,-0.16765 1.124747,-0.21716 0.237352,-0.0224 0.475601,-0.033 0.713824,-0.0402 0.08065,-0.002 0.322681,-0.006 0.241993,-0.006 -3.794352,0.004 -4.812096,-0.0491 -3.418945,0.0186 0.424889,-0.003 0.787087,0.1516 1.152453,0.35112 0.354256,0.19249 0.634386,0.46049 0.841462,0.80396 0.02813,0.0532 0.05625,0.10634 0.08438,0.15951 0,0 3.894302,-0.18884 3.894302,-0.18884 v 0 c -0.0295,-0.0563 -0.05901,-0.11264 -0.08852,-0.16895 -0.21212,-0.40565 -0.480521,-0.76258 -0.872877,-1.01114 -0.363005,-0.22132 -0.723728,-0.49205 -1.161134,-0.52108 -1.726832,-0.21473 -3.506026,-0.14735 -5.237036,0.0542 -0.391808,0.0716 -0.788834,0.14013 -1.14677,0.32428 -0.399375,0.19843 -0.762987,0.45719 -0.920425,0.89409 -0.167102,0.45788 -0.320111,0.92801 -0.36241,1.41622 -0.0042,0.30761 0.0038,0.61521 0.0053,0.92283 0.0013,0.36616 -0.0026,0.73236 0.0067,1.09847 0.0046,0.43395 0.01453,0.86926 -0.02027,1.30221 0,0 3.92853,0 3.92853,0 z" />
    <path
       style="opacity:1;fill:#000000;fill-opacity:1;stroke-width:0.264999"
       id="path73153"
       d="m 107.10024,235.75055 c -0.0698,0.7596 -0.12633,1.51801 -0.12137,2.28106 0.008,0.76661 0.031,1.53293 0.0463,2.29939 0.0207,0.9021 0.0449,1.80351 0.0568,2.70581 0.004,0.79598 -0.0344,1.59098 -0.0553,2.38639 -0.004,0.54156 2.6e-4,1.0833 0.005,1.62489 -5.3e-4,0.46559 -0.0115,0.931 -0.0216,1.39644 -5.3e-4,0.27559 0.11645,0.69131 0.46827,0.69069 1.34807,-0.002 2.69578,-0.0441 4.04367,-0.0661 0.36696,-0.18387 0.70339,-0.42339 1.04949,-0.64389 0.22458,-0.14781 0.41799,-0.33964 0.64658,-0.48218 0.10081,-0.0629 0.25264,-0.12184 0.35979,-0.1673 0.58649,-0.1978 1.20713,-0.2543 1.82036,-0.30532 0.5889,-0.0406 1.17984,-0.0355 1.7698,-0.0347 1.5421,0.007 -0.23516,-0.002 -3.25693,0.003 -0.0719,1.1e-4 0.14386,2.2e-4 0.21569,0.004 0.18036,0.008 0.33535,0.041 0.5053,0.0987 0.27469,0.1281 0.5237,0.30196 0.78783,0.44914 0.41716,0.23855 0.87375,0.38756 1.34023,0.49307 0.42356,0.0779 0.85459,0.0989 1.28424,0.11071 2.03816,0.13584 4.04921,0.0713 6.05981,-0.19979 0.58871,-0.12955 1.17991,-0.24368 1.77437,-0.3432 0.43769,-0.047 0.86497,-0.14529 1.30262,-0.1941 0.38971,-0.037 0.78186,-0.0315 1.17289,-0.0335 0.25441,-1.5e-4 0.23527,-2.6e-4 0.4843,5.3e-4 0.0716,2.4e-4 0.28649,7.9e-4 0.21487,7.9e-4 -6.32339,0.002 -4.56156,-0.002 -3.22711,8e-4 0.32752,7.9e-4 0.65505,0.003 0.98257,0.002 0.52067,-0.0201 1.038,0.0149 1.55386,0.0831 1.57891,0.20155 0.59652,0.0872 4.32849,0.0404 0.30193,-0.004 0.45974,-0.25363 0.57313,-0.48861 0.13034,-0.4119 0.10204,-0.84856 0.10507,-1.27486 0.0198,-0.45064 -0.0124,-0.89813 -0.0845,-1.34272 -0.0927,-0.49671 -0.14758,-0.99898 -0.208,-1.50032 -0.0685,-0.64014 -0.12436,-1.282 -0.17441,-1.9239 -0.0534,-0.69944 -0.13319,-1.39599 -0.16938,-2.09692 -0.0392,-0.69293 -0.0363,-1.38783 -0.0265,-2.0816 5.3e-4,-0.4303 0.0222,-0.86025 0.0231,-1.29051 0.005,-0.31641 0.0408,-0.67475 -0.23695,-0.9005 -0.0725,-0.0589 -0.16443,-0.0885 -0.24665,-0.13271 -0.57138,-0.17985 -1.17649,-0.19109 -1.77033,-0.20427 -0.093,-0.001 -0.18603,-0.003 -0.27906,-0.003 -1.04813,-8e-4 -3.838,-0.16151 -5.43611,0.13982 -0.60893,0.11768 -1.22461,0.19522 -1.84348,0.23295 -0.47251,0.0203 -0.94563,0.0174 -1.41847,0.0173 6.80815,-0.007 3.65453,0.002 2.10598,1.7e-4 -0.65847,0.002 -1.31694,8e-5 -1.9754,-0.002 -1.80484,-0.002 -3.60971,-0.004 -5.41455,-9e-5 -0.77548,2.6e-4 -1.55093,0.006 -2.32642,0.006 -1.54937,-0.002 -5.58436,0.002 1.05131,-0.001 -1.67233,-0.0112 -3.34439,-0.007 -5.01686,0.0213 -0.11063,0.002 -0.21877,0.0334 -0.32847,0.0478 -0.12452,0.0164 -0.24943,0.0297 -0.37414,0.0445 -0.70788,0.0756 -1.41859,0.11536 -2.13007,0.13177 -0.41795,0.0698 -0.2127,0.0343 -0.6158,0.10637 0,0 3.81906,0.54364 3.81906,0.54364 v 0 c 0.39006,-0.0533 0.19024,-0.0327 0.59965,-0.06 0.7055,-0.0284 1.40853,-0.0913 2.11064,-0.16543 0.12977,-0.0135 0.25934,-0.029 0.3893,-0.0405 0.1175,-0.0103 0.47093,-0.0238 0.35298,-0.0248 -2.75033,-0.0253 -4.80649,0.002 -3.27056,-0.006 0.1075,-5.2e-4 0.215,-0.001 0.3225,-0.002 0.12779,-5.3e-4 0.25558,-0.001 0.38337,-0.002 2.15013,-7.9e-4 4.30022,-2.6e-4 6.45031,-0.001 0.79924,-8e-4 1.59845,0.005 2.39768,0.006 1.3352,0.003 3.26878,-7.9e-4 -2.99645,2.7e-4 -0.0891,1e-5 0.17818,2.6e-4 0.26727,5.3e-4 0.085,7e-5 0.16993,1.4e-4 0.2549,-1e-5 0.0869,-1.5e-4 0.17383,-5.2e-4 0.26075,-7.9e-4 0.66208,-0.002 1.32415,-0.003 1.98623,-2.6e-4 1.84234,0.002 3.68461,0.0217 5.52699,0.004 0.47456,-0.002 0.94996,-0.005 1.42293,-0.0485 0.60502,-0.0645 1.20447,-0.16655 1.80521,-0.26191 0.33704,-0.034 0.67387,-0.064 1.01255,-0.0767 0.10745,-0.004 0.43003,-0.006 0.32251,-0.006 -2.1124,-0.004 -4.80202,0.003 -3.22604,-0.001 0.57814,0.003 1.15862,0.005 1.73219,0.0867 0.0703,0.008 0.14044,0.0162 0.21077,0.0231 0.0442,0.004 0.0908,-0.004 0.13291,0.0108 0.16474,0.0562 0.0574,0.39858 0.0846,0.51823 -1.9e-4,0.43099 0.0199,0.8617 0.0229,1.29268 0.0159,0.70026 0.0302,1.40051 0.0511,2.10065 0.0398,0.70375 0.10137,1.40518 0.16242,2.10737 0.0548,0.64707 0.094,1.29445 0.14767,1.9413 0.0666,0.50447 0.0906,1.01443 0.19659,1.51312 0.0666,0.42499 0.0833,0.84994 0.079,1.27979 -2.6e-4,0.34532 0.0281,0.7315 -0.131,1.04729 -0.0971,0.0842 -0.18247,0.10231 -0.31288,0.11315 -0.0611,0.005 -0.24532,0.006 -0.18397,0.006 3.92716,0.0274 4.77045,0.0625 3.32518,0.007 -0.50299,-0.0748 -1.00641,-0.16476 -1.51723,-0.14338 -0.33157,-0.002 -0.66315,5.3e-4 -0.99473,2.6e-4 -1.7145,-2.6e-4 -3.42905,-0.0107 -5.14351,0.004 -0.40227,0.005 -0.80584,0.009 -1.20338,0.079 -0.42534,0.0694 -0.84937,0.14581 -1.27508,0.21296 -0.57186,0.10577 -1.13853,0.23498 -1.71161,0.33313 -0.46386,0.0541 -0.9295,0.10596 -1.3961,0.13017 -0.15558,0.008 -0.62298,0.0116 -0.4672,0.0121 2.04541,0.007 4.87511,-0.008 3.42707,-5.3e-4 -0.43363,0.002 -0.86776,-0.003 -1.29989,-0.0432 -0.44759,-0.0591 -0.88223,-0.1596 -1.28923,-0.36132 -0.26489,-0.16203 -0.54064,-0.30549 -0.80128,-0.47506 -0.23842,-0.15278 -0.48455,-0.27254 -0.77607,-0.2744 -1.87593,-0.012 -2.87976,-0.006 -4.36444,0.002 -0.59515,0.004 -1.19248,-0.004 -1.78409,0.0716 -0.63466,0.0792 -1.28738,0.15687 -1.86988,0.4376 -0.35995,0.20126 -0.67114,0.47011 -1.02079,0.68802 -0.32629,0.20225 -0.64117,0.44868 -1.03408,0.49591 1.22447,2.6e-4 2.44908,-0.0182 3.6734,0.001 0.0556,8e-4 -0.10535,0.0357 -0.15783,0.0541 -0.0302,0.0106 -0.17946,0.071 -0.20378,0.0598 -0.0471,-0.0217 -0.0588,-0.18059 -0.0618,-0.1989 -0.0101,-0.46544 -0.0211,-0.93084 -0.0216,-1.39642 0.004,-0.54156 0.009,-1.08325 0.005,-1.62478 -0.0203,-0.79558 -0.0581,-1.59076 -0.0552,-2.38689 0.0101,-0.90491 0.038,-1.80963 0.0241,-2.71448 -0.0206,-0.76337 -0.0695,-1.52496 -0.0888,-2.28847 0.0124,-0.73544 0.051,-1.48342 0.23999,-2.19732 0,0 -3.91484,-0.0856 -3.91484,-0.0856 z" />
    <path
       style="opacity:1;fill:#000000;fill-opacity:1;stroke-width:0.264999"
       id="path73155"
       d="m 115.64564,234.91123 c -0.0261,-0.43667 -0.0457,-0.87717 -0.005,-1.31342 0.0313,-0.40302 0.16209,-0.77599 0.31682,-1.14514 0.19475,-0.40629 0.46161,-0.77324 0.77036,-1.09995 0.31374,-0.32803 0.63003,-0.64972 0.96171,-0.96001 0.31026,-0.30717 0.70841,-0.37397 1.12432,-0.41876 0.42443,-0.0185 0.83081,-0.15371 1.24927,-0.22072 0.0577,-0.007 0.11619,-0.009 0.17319,-0.0209 0.24201,-0.0488 0.0854,-0.0406 0.32598,-0.11255 0.23645,-0.0707 0.49612,-0.0812 0.73968,-0.10695 0.49115,-0.0503 0.98478,-0.0592 1.47803,-0.0624 -6.70283,0.02 -3.81225,-0.12788 -2.3304,0.13909 0.43949,0.0861 0.87967,0.16465 1.29776,0.32895 0.40573,0.17748 0.72315,0.47977 1.02224,0.79744 0.23884,0.27268 0.45216,0.57367 0.59848,0.90638 0.10821,0.28694 0.16905,0.58251 0.20021,0.88664 0.0235,0.32552 0.0254,0.65227 0.0268,0.97851 0.002,0.27995 0.006,0.55679 -0.0419,0.8329 -0.0284,0.26354 -0.10656,0.51737 -0.18317,0.77008 0,0 3.90244,0.11279 3.90244,0.11279 v 0 c 0.0788,-0.27027 0.15776,-0.54163 0.19808,-0.82089 0.0439,-0.29802 0.0391,-0.5959 0.0327,-0.89668 -0.002,-0.33838 -0.006,-0.67681 -0.0375,-1.01406 -0.0307,-0.34071 -0.0684,-0.67758 -0.18791,-1.00062 -0.14555,-0.38043 -0.38622,-0.71584 -0.63675,-1.03382 -0.29689,-0.3633 -0.62624,-0.70043 -1.02592,-0.95167 -0.41386,-0.24051 -0.867,-0.3547 -1.33827,-0.42527 -0.17958,-0.0391 -0.35601,-0.0936 -0.5373,-0.12381 -1.50605,-0.25118 -3.79957,0.4776 -4.79616,-0.0873 -0.48773,0.0126 -0.97501,0.0416 -1.45857,0.10951 -0.43257,0.0659 -0.8504,0.18525 -1.28179,0.25585 -0.41236,0.0877 -0.82398,0.16948 -1.24288,0.21904 -0.44396,0.11125 -0.82782,0.30555 -1.14342,0.64603 -0.33125,0.32476 -0.65664,0.65616 -0.96997,0.9982 -0.29691,0.3815 -0.57478,0.77685 -0.76828,1.22296 -0.1662,0.40816 -0.30673,0.82451 -0.32492,1.26974 -0.023,0.44651 0.004,0.89484 -0.036,1.34084 0,0 3.92853,0 3.92853,0 z" />
    <path
       style="opacity:1;fill:#ffff00;fill-opacity:1;stroke-width:0.341521"
       d="m 547.78937,173.70701 c -2.99978,-1.75161 -5.60759,-3.25702 -5.79513,-3.34537 -0.18754,-0.0883 0.60744,-1.02105 1.76663,-2.07267 1.65094,-1.49773 2.23361,-2.2974 2.68905,-3.69055 0.37619,-1.15069 0.98634,-2.11829 1.72846,-2.74104 0.79654,-0.66842 1.14702,-1.2524 1.14702,-1.9112 0,-1.13136 2.79782,-3.95738 5.06093,-5.11193 l 1.43056,-0.72982 1.61328,0.8057 c 0.8873,0.44313 3.22443,1.6369 5.19361,2.65282 l 3.58033,1.84712 -0.51147,1.10082 c -0.28132,0.60545 -0.76887,1.10414 -1.08345,1.1082 -0.61745,0.008 -1.82869,1.36332 -2.16483,2.42238 -0.11414,0.35962 -0.40356,0.65385 -0.64317,0.65385 -0.82145,0 -1.61781,1.30761 -2.21842,3.64257 -0.78552,3.05384 -0.91758,3.26402 -3.846,6.12122 l -2.49326,2.43262 z"
       id="path73346"
       transform="scale(0.26458333)" />
  </g>
</svg>
